<svg width="113" height="27" viewBox="0 0 113 27" fill="none" xmlns="http://www.w3.org/2000/svg">
<path d="M48.5879 5.58747C48.1029 5.32385 47.5429 5.1879 46.9736 5.19558H44.6286V11.7142H46.9736C47.5412 11.7216 48.1 11.5898 48.5879 11.3333C49.0792 11.0609 49.4748 10.6729 49.7306 10.2129C50.0328 9.66328 50.1807 9.0574 50.1616 8.44659C50.1814 7.84016 50.0334 7.23861 49.7306 6.69415C49.477 6.23637 49.0806 5.85234 48.5879 5.58747ZM48.1351 9.53395C48.0271 9.78667 47.8397 10.0069 47.5949 10.1687C47.3753 10.3118 47.1088 10.3874 46.8361 10.384H46.4458V6.52579H46.8361C47.1088 6.5224 47.3753 6.598 47.5949 6.74106C47.8412 6.90498 48.0288 7.12826 48.1351 7.38409C48.2806 7.72307 48.3486 8.08422 48.3349 8.44659C48.3522 8.81181 48.2885 9.1765 48.1476 9.52015L48.1351 9.53395Z" fill="#36384E"/>
<path d="M52.7093 9.07304H54.7921V7.76767H52.7093V6.52577H56.0036V5.18176H50.8921V11.7142H56.0473V10.3701H52.7093V9.07304Z" fill="#36384E"/>
<path d="M79.4434 5.18174L79.4652 8.85774L77.3108 5.18174H75.5997V11.7141H77.1016L77.0796 7.89735L79.3404 11.7141H80.9453V5.18174H79.4434Z" fill="#36384E"/>
<path d="M72.0383 9.30449H73.2092C73.1839 9.49822 73.1161 9.68571 73.0095 9.85645C72.9212 10.0074 72.7952 10.1385 72.641 10.2401C72.4957 10.3327 72.3206 10.382 72.1414 10.3808C71.9081 10.3817 71.6813 10.3127 71.4982 10.1849C71.2896 10.0164 71.1392 9.79921 71.0642 9.5584C70.9491 9.19391 70.8965 8.81621 70.9081 8.43792C70.8956 8.0596 70.9482 7.68178 71.0642 7.31746C71.1367 7.07841 71.2838 6.86224 71.4889 6.69375C71.6606 6.56713 71.8772 6.49778 72.1008 6.49778C72.3245 6.49778 72.5411 6.56713 72.7128 6.69375C72.9221 6.84931 73.0734 7.05708 73.1469 7.28986L74.6894 6.83174C74.4935 6.31224 74.1245 5.85721 73.6308 5.52637C73.174 5.22477 72.618 5.06384 72.0478 5.06824C71.5111 5.06294 70.9849 5.1994 70.5366 5.46013C70.0678 5.74788 69.699 6.14546 69.4718 6.6082C69.1928 7.1858 69.0596 7.81019 69.0815 8.43792C69.06 9.0683 69.1932 9.69532 69.4718 10.2759C69.7023 10.7379 70.0758 11.133 70.5491 11.4157C70.9961 11.6767 71.5213 11.8132 72.0571 11.8076C72.5865 11.8196 73.106 11.6792 73.5372 11.4074C73.9831 11.1116 74.3242 10.7095 74.5207 10.2483C74.767 9.66062 74.8846 9.03688 74.8673 8.41033V7.96049H72.0383V9.30449Z" fill="#36384E"/>
<path d="M61.7596 8.27795C61.507 8.13872 61.2338 8.031 60.9478 7.95781C60.6604 7.87865 60.3672 7.81688 60.0704 7.77291C59.78 7.72324 59.5146 7.6708 59.2679 7.61284C59.0586 7.57064 58.8583 7.49889 58.6747 7.40034C58.6034 7.35615 58.5457 7.29688 58.507 7.22795C58.4683 7.15901 58.4496 7.08261 58.4529 7.0057C58.4547 6.91716 58.4808 6.83031 58.5286 6.7525C58.5765 6.67469 58.6447 6.60818 58.7278 6.55861C58.9572 6.42908 59.2272 6.36724 59.4989 6.38198C59.8533 6.38066 60.205 6.43775 60.5357 6.55033C60.8962 6.67275 61.234 6.84204 61.538 7.05261L62.4559 5.88798C62.0691 5.6184 61.6285 5.41528 61.157 5.28912C60.6527 5.14503 60.1257 5.07238 59.5957 5.07386C59.0671 5.06215 58.5417 5.14865 58.0533 5.32775C57.6566 5.47704 57.3188 5.7267 57.0822 6.04529C56.8484 6.37568 56.7299 6.75966 56.7418 7.1492C56.7273 7.45155 56.805 7.75179 56.9667 8.01853C57.1085 8.23214 57.308 8.41136 57.5474 8.54013C57.7932 8.67502 58.0592 8.77904 58.3375 8.84922C58.6278 8.91822 58.915 8.97617 59.2054 9.02584C59.4722 9.06514 59.736 9.1186 59.9955 9.18592C60.2046 9.22838 60.4019 9.30719 60.5762 9.41774C60.6503 9.46789 60.7094 9.5334 60.7481 9.60849C60.7867 9.68358 60.8038 9.76593 60.7979 9.84826C60.8007 9.97414 60.7519 10.0967 60.6605 10.1932C60.5566 10.3003 60.4217 10.3805 60.2702 10.4251C60.0815 10.4865 59.8811 10.5156 59.68 10.5106C59.3395 10.5069 59.0027 10.447 58.6871 10.334C58.2628 10.1667 57.8564 9.96628 57.4725 9.73511L56.5857 10.9384C57.0357 11.2125 57.525 11.4325 58.0408 11.5924C58.5554 11.743 59.0942 11.8185 59.6363 11.816C60.1717 11.8291 60.7041 11.7407 61.1975 11.5566C61.6125 11.3973 61.9685 11.1381 62.2248 10.8087C62.4645 10.4798 62.5895 10.0959 62.584 9.70475C62.597 9.40021 62.5205 9.09787 62.3622 8.82714C62.2205 8.59974 62.0125 8.41009 61.7596 8.27795Z" fill="#36384E"/>
<path d="M63.1229 6.52575H64.9184V10.3701H63.1229V11.7141H68.531V10.3701H66.7356V6.52575H68.531V5.18174H63.1229V6.52575Z" fill="#36384E"/>
<path d="M86.6921 11.7471C86.2613 11.7538 85.8344 11.6746 85.4431 11.5153C85.101 11.3739 84.8109 11.15 84.6062 10.8695C84.3961 10.581 84.2875 10.2439 84.294 9.9008C84.2887 9.57292 84.386 9.25011 84.5751 8.96799C84.7946 8.65541 85.0874 8.38813 85.4338 8.18422C85.25 7.95503 85.0989 7.7066 84.9842 7.4446C84.8983 7.21214 84.856 6.96881 84.8592 6.72429C84.8548 6.43216 84.9447 6.14496 85.1184 5.89636C85.3023 5.6467 85.559 5.44553 85.8615 5.31405C86.1867 5.16326 86.5498 5.08732 86.917 5.09327C87.2646 5.0873 87.6087 5.15646 87.9193 5.29473C88.1985 5.41541 88.4357 5.60036 88.6061 5.83013C88.7818 6.05548 88.8736 6.3237 88.8685 6.59735C88.8702 6.82274 88.8169 7.04582 88.7124 7.25141C88.6 7.47312 88.4361 7.6715 88.2315 7.83373C87.9726 8.0439 87.6889 8.22894 87.3853 8.38568L87.8662 8.84932C88.0535 9.01491 88.2565 9.18877 88.4719 9.37368C88.5539 9.20291 88.6238 9.02778 88.6811 8.84932C88.7528 8.63968 88.8122 8.42689 88.859 8.21181L90.1955 8.40499C90.1157 8.73994 90.0114 9.06997 89.8833 9.393C89.7742 9.67046 89.6383 9.93914 89.4773 10.1961C89.7271 10.3865 89.927 10.5355 90.0737 10.6404L90.4578 10.8971L89.4867 11.8216L88.9964 11.4794C88.8497 11.3745 88.7154 11.2724 88.5906 11.1758C88.3355 11.364 88.0448 11.5107 87.7319 11.6091C87.3961 11.7047 87.0449 11.7513 86.6921 11.7471ZM86.2425 6.70497C86.2421 6.84429 86.2695 6.98257 86.3236 7.11342C86.4067 7.27139 86.505 7.4228 86.6172 7.56603C86.7895 7.47239 86.9533 7.3672 87.1074 7.25141C87.2171 7.16382 87.3091 7.0602 87.3791 6.94508C87.4399 6.84592 87.4721 6.73499 87.4727 6.62218C87.4749 6.55162 87.4602 6.48145 87.4296 6.41628C87.3989 6.35111 87.353 6.29242 87.2948 6.2441C87.2405 6.19222 87.1741 6.15131 87.1002 6.12416C87.0264 6.09702 86.9469 6.08427 86.867 6.08679C86.7812 6.08403 86.6958 6.09764 86.6166 6.12669C86.5374 6.15574 86.4662 6.19956 86.4079 6.25514C86.2903 6.38119 86.2313 6.54192 86.2425 6.70497ZM85.7178 9.79868C85.711 9.91795 85.7329 10.0371 85.7819 10.1484C85.8308 10.2597 85.9059 10.3606 86.002 10.4445C86.2237 10.6077 86.5071 10.6905 86.7951 10.6763C86.9441 10.677 87.092 10.6546 87.2323 10.6101C87.3797 10.5622 87.5177 10.4942 87.6413 10.4086C87.4103 10.2044 87.173 9.98911 86.9295 9.76281L86.2082 9.0425C86.0579 9.1437 85.9307 9.26919 85.8334 9.41231C85.7582 9.53013 85.7195 9.6634 85.721 9.79868H85.7178Z" fill="#36384E"/>
<path d="M71.3962 14.9978H69.582V21.5219H74.7278V20.1779H71.3962V14.9978Z" fill="#36384E"/>
<path d="M65.2053 18.8836H67.2817V17.5782H65.2053V16.3391H68.4964V14.9978H63.3911V21.5219H68.5369V20.1779H65.2053V18.8836Z" fill="#36384E"/>
<path d="M48.5816 15.3899C48.0976 15.1267 47.5387 14.9907 46.9704 14.998H44.6286V21.5221H46.9704C47.5374 21.5297 48.0956 21.3968 48.5816 21.1385C49.0721 20.8672 49.4668 20.4801 49.7213 20.0208C50.0238 19.4732 50.1727 18.8693 50.1554 18.2601C50.1743 17.6534 50.0253 17.0518 49.7213 16.5076C49.4704 16.0463 49.0748 15.6583 48.5816 15.3899ZM48.1288 19.3309C48.0192 19.582 47.8334 19.8017 47.5918 19.9656C47.3719 20.1077 47.1054 20.1823 46.833 20.1781H46.4427V16.3503H46.833C47.1058 16.3469 47.3723 16.4225 47.5918 16.5656C47.8357 16.7311 48.0217 16.9539 48.1288 17.2086C48.2746 17.5475 48.3426 17.9087 48.3287 18.2711C48.3401 18.6325 48.2722 18.9923 48.1288 19.3309Z" fill="#36384E"/>
<path d="M59.806 19.5962L58.432 14.8521H56.6304L58.7505 21.3762H60.8176L62.9378 14.8521H61.2079L59.806 19.5962Z" fill="#36384E"/>
<path d="M52.7006 18.8835H54.777V17.5782H52.7006V16.339H55.9916V14.9978H50.8865V21.5219H56.0323V20.1779H52.7006V18.8835Z" fill="#36384E"/>
<path d="M79.7584 15.285C79.3076 15.0316 78.7844 14.8971 78.2502 14.8971C77.716 14.8971 77.1928 15.0316 76.742 15.285C76.2696 15.5714 75.8975 15.9692 75.6679 16.4331C75.3904 17.0101 75.2573 17.6333 75.2776 18.2601C75.2582 18.8894 75.3913 19.5152 75.6679 20.0953C75.9003 20.5547 76.272 20.9483 76.742 21.2323C77.1917 21.4883 77.7153 21.6245 78.2502 21.6245C78.7851 21.6245 79.3087 21.4883 79.7584 21.2323C80.228 20.9501 80.5971 20.5558 80.823 20.0953C81.1088 19.5173 81.2464 18.8906 81.2258 18.2601C81.2471 17.6322 81.1095 17.008 80.823 16.4331C80.6 15.9681 80.2305 15.5695 79.7584 15.285ZM79.243 19.3585C79.1728 19.599 79.0305 19.8183 78.8309 19.9932C78.6743 20.1248 78.4663 20.1979 78.2502 20.1974C78.0317 20.1959 77.8215 20.1232 77.66 19.9932C77.4642 19.8162 77.3233 19.5976 77.251 19.3585C77.0496 18.6333 77.0496 17.8758 77.251 17.1506C77.3233 16.9123 77.4642 16.6946 77.66 16.5186C77.8204 16.3867 78.0311 16.3129 78.2502 16.3117C78.4669 16.311 78.6753 16.3853 78.8309 16.5186C79.031 16.6921 79.1734 16.9107 79.243 17.1506C79.4528 17.8749 79.4528 18.6342 79.243 19.3585Z" fill="#36384E"/>
<path d="M86.1448 15.277C85.7213 15.0846 85.2499 14.9897 84.774 15.001H81.9638V21.5251H83.7749V19.2483H84.7772C85.2532 19.2604 85.7249 19.1654 86.148 18.9723C86.5262 18.8018 86.8434 18.5417 87.064 18.221C87.2845 17.9003 87.3998 17.5317 87.3969 17.1564C87.4086 16.7701 87.3007 16.3884 87.0847 16.0525C86.8635 15.7186 86.5368 15.4491 86.1448 15.277ZM85.2705 17.7276C85.1599 17.8128 85.031 17.8774 84.8915 17.9177C84.7521 17.958 84.6049 17.9731 84.4587 17.9622H83.7717V16.3202H84.4587C84.6049 16.3092 84.7521 16.3244 84.8915 16.3647C85.031 16.405 85.1599 16.4696 85.2705 16.5547C85.3607 16.63 85.4319 16.7213 85.4793 16.8226C85.5266 16.9239 85.5491 17.033 85.5453 17.1426C85.5481 17.252 85.5252 17.3608 85.4779 17.462C85.4306 17.5632 85.36 17.6546 85.2705 17.7304V17.7276Z" fill="#36384E"/>
<path d="M104.759 18.6684L102.607 14.9979H100.9V21.522H102.398L102.376 17.7107L104.634 21.522H106.236V14.9979H104.74L104.759 18.6684Z" fill="#36384E"/>
<path d="M106.967 14.9979V16.3391H109.075V21.522H110.889V16.3391H113V14.9979H106.967Z" fill="#36384E"/>
<path d="M96.5061 18.8835H98.5825V17.5782H96.5061V16.339H99.7971V14.9978H94.6919V21.5219H99.8377V20.1779H96.5061V18.8835Z" fill="#36384E"/>
<path d="M90.864 17.0098L90.0178 14.9979H88.1099V21.522H89.6181L89.6275 17.2719L90.8421 19.9462L92.066 17.2719V21.522H93.593V14.9979H91.6852L90.864 17.0098Z" fill="#36384E"/>
<path d="M14.7691 3.60979C12.1619 1.19223 8.25262 9.57209e-06 3.03814 9.57209e-06H0V7.41276H2.8102C6.59149 7.41276 8.50242 9.37219 8.50242 13.3269C8.50242 17.2817 6.59149 19.2798 2.8102 19.2798H0V26.6925H3.04134C8.25583 26.6925 12.1651 25.5003 14.7723 23.0827C17.3796 20.6652 18.7347 17.4363 18.7347 13.3214C18.7347 9.20661 17.4201 5.99147 14.7691 3.60979Z" fill="#36384E"/>
<path d="M32.3224 3.60978C29.7152 1.19222 25.8059 0 20.5914 0H17.5501V7.41275H20.3603C24.1416 7.41275 26.0525 9.37218 26.0525 13.3269C26.0525 17.2817 24.1416 19.2798 20.3603 19.2798H17.5501V26.6925H20.607C25.8215 26.6925 29.7307 25.5003 32.338 23.0827C34.9452 20.6652 36.2505 17.4362 36.2505 13.3269C36.2505 9.21764 34.9297 5.99146 32.3224 3.60978Z" fill="#36384E"/>
</svg>
